<svg width="28" height="28" viewBox="0 0 28 28" fill="none" xmlns="http://www.w3.org/2000/svg">
<path d="M24.5 22.1667V20.2464C24.5 19.2923 23.9191 18.4343 23.0332 18.08L20.6601 17.1307C19.5333 16.68 18.2492 17.1682 17.7065 18.2536L17.5 18.6667C17.5 18.6667 14.5833 18.0833 12.25 15.75C9.91667 13.4167 9.33333 10.5 9.33333 10.5L9.74635 10.2935C10.8318 9.75078 11.32 8.46666 10.8693 7.33992L9.92004 4.96676C9.56569 4.08089 8.7077 3.5 7.75359 3.5H5.83333C4.54467 3.5 3.5 4.54467 3.5 5.83333C3.5 16.1426 11.8574 24.5 22.1667 24.5C23.4553 24.5 24.5 23.4553 24.5 22.1667Z" stroke="black" stroke-width="1.75" stroke-linejoin="round"/>
</svg>
