<svg width="28" height="21" viewBox="0 0 28 21" fill="none" xmlns="http://www.w3.org/2000/svg">
<path d="M3.64361 20.0167H24.7045C26.7817 20.0167 28 18.8099 28 16.4195V3.60891C28 1.21852 26.7701 0.0117188 24.3565 0.0117188H3.29548C1.2184 0.0117188 0 1.21852 0 3.60891V16.4195C0 18.8099 1.23001 20.0167 3.64361 20.0167ZM3.57398 18.2414C2.4252 18.2414 1.77539 17.6031 1.77539 16.4079V3.5973C1.77539 2.41371 2.4252 1.78711 3.57398 1.78711H24.4144C25.5632 1.78711 26.2247 2.41371 26.2247 3.60891V16.4195C26.2247 17.6031 25.5632 18.2414 24.4144 18.2414H3.57398ZM13.9942 13.066C14.7369 13.066 15.4563 12.7876 16.1177 12.1841L27.0369 2.3557L25.8301 1.13729L15.1082 10.8033C14.7484 11.1282 14.3771 11.279 13.9942 11.279C13.6113 11.279 13.24 11.1282 12.8802 10.8033L2.15831 1.13729L0.951515 2.3557L11.8707 12.1841C12.5321 12.7876 13.2516 13.066 13.9942 13.066ZM2.33237 18.5314L10.5711 10.2811L9.36429 9.07431L1.12557 17.3131L2.33237 18.5314ZM25.6793 18.5431L26.886 17.3246L18.6357 9.07431L17.4173 10.2811L25.6793 18.5431Z" fill="white"/>
</svg>
