<svg width="28" height="28" viewBox="0 0 28 28" fill="none" xmlns="http://www.w3.org/2000/svg">
<path d="M1.92485 12.388C9.44103 9.11328 14.453 6.95441 16.9607 5.91135C24.1209 2.9332 25.6087 2.41587 26.5784 2.3986C26.7917 2.39503 27.2686 2.44789 27.5775 2.69854C27.8383 2.91019 27.9101 3.1961 27.9444 3.39677C27.9788 3.59744 28.0215 4.05456 27.9876 4.41175C27.5995 8.4886 25.9206 18.382 25.0665 22.9482C24.7051 24.8803 23.9934 25.5281 23.3045 25.5915C21.8072 25.7293 20.6703 24.602 19.2201 23.6514C16.9509 22.1639 15.669 21.238 13.4663 19.7864C10.9207 18.109 12.5709 17.187 14.0216 15.6802C14.4013 15.2859 20.9982 9.28549 21.1259 8.74116C21.1418 8.67308 21.1567 8.41932 21.0059 8.28533C20.8552 8.15133 20.6327 8.19715 20.4721 8.2336C20.2445 8.28525 16.6194 10.6813 9.59681 15.4218C8.56784 16.1283 7.63583 16.4726 6.80078 16.4546C5.8802 16.4347 4.10939 15.934 2.79297 15.5061C1.17832 14.9813 -0.104962 14.7038 0.00678326 13.8124C0.0649871 13.3481 0.704344 12.8733 1.92485 12.388Z" fill="white"/>
</svg>
