<svg width="28" height="28" viewBox="0 0 28 28" fill="none" xmlns="http://www.w3.org/2000/svg">
<path d="M24.3118 2.73237C23.6168 2.0883 20.8033 0.045936 14.5406 0.0205124C14.5406 0.0205124 7.15086 -0.428628 3.52376 2.87643C1.5153 4.88489 0.811918 7.81707 0.735647 11.4526C0.659376 15.0882 0.566156 21.9017 7.13391 23.7492V26.5712C7.13391 26.5712 7.13391 27.7152 7.84577 27.9441C8.75254 28.2322 9.28643 27.3593 10.1593 26.4271C10.6339 25.9102 11.2949 25.1559 11.7864 24.5797C14.5807 24.8407 17.3989 24.6345 20.1253 23.9695C21.0321 23.6729 26.1677 23.0204 27.0067 16.1984C27.8965 9.173 26.6168 4.73235 24.3118 2.73237ZM25.0745 15.6984C24.3626 21.3848 20.2016 21.7407 19.4389 21.9865C17.093 22.5647 14.6712 22.7735 12.261 22.6051C12.261 22.6051 9.41355 25.9949 8.52373 26.9271C8.47423 26.9856 8.41153 27.0315 8.3408 27.0609C8.27007 27.0904 8.19334 27.1026 8.11695 27.0966C7.96441 27.0542 7.92204 26.8763 7.92204 26.6135C7.92204 26.3508 7.92204 21.9271 7.92204 21.9271C2.36275 20.3763 2.68479 14.5797 2.75258 11.5459C2.82038 8.51198 3.38817 6.02047 5.08308 4.34252C8.12543 1.5883 14.405 1.99508 14.405 1.99508C19.7016 1.99508 22.244 3.61372 22.8287 4.14761C24.8033 5.82556 25.7948 9.82553 25.0745 15.6984Z" fill="white"/>
<path d="M17.1167 11.2924C17.1399 11.0052 17.1016 10.7163 17.0043 10.445C16.907 10.1738 16.753 9.92643 16.5524 9.71948C16.3519 9.51253 16.1095 9.35074 15.8415 9.24495C15.5734 9.13915 15.2859 9.09177 14.998 9.10598" stroke="white" stroke-width="0.711859" stroke-linecap="round" stroke-linejoin="round"/>
<path d="M18.9302 11.8765C18.9651 11.2866 18.8818 10.6956 18.6854 10.1383C18.4889 9.58094 18.1832 9.06842 17.7862 8.63074C16.9157 7.7485 15.737 7.23816 14.498 7.20703" stroke="white" stroke-width="0.711859" stroke-linecap="round" stroke-linejoin="round"/>
<path d="M20.7935 12.6316C20.8377 11.6571 20.6823 10.6839 20.337 9.77169C19.9916 8.85945 19.4635 8.02738 18.7851 7.32653C18.1325 6.68641 17.3585 6.18341 16.5085 5.8472C15.6585 5.51099 14.7498 5.34837 13.8359 5.36892" stroke="white" stroke-width="0.711859" stroke-linecap="round" stroke-linejoin="round"/>
<path d="M15.0751 16.0373C15.2156 16.0477 15.3566 16.0274 15.4884 15.9776C15.6201 15.9278 15.7394 15.8498 15.8379 15.7491L16.3633 15.0881C16.5432 14.8901 16.7872 14.762 17.0523 14.7264C17.3174 14.6907 17.5866 14.7498 17.8124 14.8932C18.262 15.1525 18.6977 15.4354 19.1175 15.7406C19.5158 16.0373 20.3209 16.7067 20.3209 16.7152C20.5105 16.8686 20.637 17.0865 20.6761 17.3273C20.7152 17.5681 20.6641 17.8148 20.5327 18.0203C20.2443 18.5212 19.8782 18.9732 19.448 19.3593C19.1376 19.6412 18.7518 19.8267 18.3378 19.8932C18.2846 19.9023 18.2301 19.9023 18.1768 19.8932C18.0188 19.8955 17.8615 19.8727 17.7107 19.8254C16.6545 19.4602 15.638 18.9888 14.6768 18.4186C13.7822 17.9278 12.9316 17.3607 12.1345 16.7237C11.734 16.4068 11.352 16.0673 10.9904 15.7067H10.9481C10.5897 15.3402 10.2502 14.9555 9.93111 14.5542C9.29694 13.755 8.73004 12.9046 8.23621 12.0119C7.66574 11.052 7.1971 10.0352 6.83791 8.97798C6.78784 8.82475 6.76211 8.66462 6.76165 8.50341C6.75653 8.44986 6.75653 8.39594 6.76165 8.34239C6.82683 7.93047 7.01262 7.54711 7.29554 7.2407C7.62152 6.74705 8.02501 6.30923 8.49045 5.9441C8.69726 5.81214 8.94537 5.76081 9.18757 5.79987C9.42977 5.83893 9.64915 5.96567 9.80399 6.15597C9.80399 6.15597 10.482 7.00342 10.7701 7.35935C11.0582 7.71528 11.4142 8.33392 11.6175 8.66443C11.7573 8.89347 11.8134 9.16384 11.7763 9.42957C11.7392 9.69531 11.6113 9.93999 11.4142 10.122L10.7531 10.639C10.6522 10.7391 10.5742 10.8598 10.5245 10.993C10.4747 11.1261 10.4544 11.2684 10.465 11.4102C10.7879 12.504 11.3786 13.5001 12.1836 14.308C12.9886 15.116 13.9825 15.7103 15.0751 16.0373Z" fill="white"/>
</svg>
