<svg width="28" height="28" viewBox="0 0 28 28" fill="none" xmlns="http://www.w3.org/2000/svg">
<path fill-rule="evenodd" clip-rule="evenodd" d="M23.8 4.025C21.175 1.4 17.675 0 14 0C6.3 0 0 6.3 0 14C0 16.45 0.700011 18.9 1.92501 21L0 28L7.35002 26.075C9.45002 27.125 11.725 27.825 14 27.825C21.7 27.825 28 21.525 28 13.825C28 10.15 26.425 6.65 23.8 4.025ZM14 25.55C11.9 25.55 9.80001 25.025 8.05001 23.975L7.69999 23.8L3.32499 25.025L4.55001 20.825L4.19999 20.3C2.97499 18.375 2.44999 16.275 2.44999 14.175C2.44999 7.875 7.7 2.625 14 2.625C17.15 2.625 19.95 3.85 22.225 5.95C24.5 8.225 25.55 11.025 25.55 14.175C25.55 20.3 20.475 25.55 14 25.55ZM20.3 16.8C19.95 16.625 18.2 15.75 17.85 15.75C17.5 15.575 17.325 15.575 17.15 15.925C16.975 16.275 16.275 16.975 16.1 17.325C15.925 17.5 15.75 17.5 15.4 17.5C15.05 17.325 14 16.975 12.6 15.75C11.55 14.875 10.85 13.65 10.675 13.3C10.5 12.95 10.675 12.775 10.85 12.6C11.025 12.425 11.2 12.25 11.375 12.075C11.55 11.9 11.55 11.725 11.725 11.55C11.9 11.375 11.725 11.2 11.725 11.025C11.725 10.85 11.025 9.1 10.675 8.4C10.5 7.875 10.15 7.875 9.97502 7.875C9.80002 7.875 9.62498 7.875 9.27498 7.875C9.09998 7.875 8.74998 7.875 8.39998 8.225C8.04998 8.575 7.17501 9.45 7.17501 11.2C7.17501 12.95 8.39999 14.525 8.57499 14.875C8.74999 15.05 11.025 18.725 14.525 20.125C17.5 21.35 18.025 21 18.725 21C19.425 21 20.825 20.125 21 19.425C21.35 18.55 21.35 17.85 21.175 17.85C21 16.975 20.65 16.975 20.3 16.8Z" fill="white"/>
</svg>
