<svg width="72" height="72" viewBox="0 0 72 72" fill="none" xmlns="http://www.w3.org/2000/svg">
<ellipse cx="36" cy="49.5" rx="18" ry="7.5" stroke="#28303F" stroke-width="4.5" stroke-linejoin="round"/>
<circle cx="36" cy="24" r="9" stroke="#28303F" stroke-width="4.5" stroke-linejoin="round"/>
<path fill-rule="evenodd" clip-rule="evenodd" d="M19.3364 39.7847C15.6207 39.9393 12.2074 40.6087 9.55777 41.6685C8.04365 42.2742 6.66735 43.0516 5.63278 44.03C4.59346 45.0129 3.75 46.3538 3.75 48.0002C3.75 49.6467 4.59346 50.9876 5.63278 51.9705C6.66735 52.9489 8.04365 53.7263 9.55777 54.3319C11.0571 54.9317 12.801 55.4064 14.7059 55.7335C13.225 54.1361 12.2956 52.3512 12.0596 50.4587C11.7702 50.3612 11.4931 50.2594 11.229 50.1538C10.0287 49.6737 9.20828 49.1582 8.72477 48.701C8.24941 48.2514 8.24997 48.014 8.25 48.0005L8.25 48.0002L8.25 48C8.24997 47.9864 8.24941 47.7491 8.72477 47.2995C9.20828 46.8422 10.0287 46.3268 11.229 45.8467C11.8379 45.6031 12.516 45.38 13.2536 45.1827C14.4947 43.1131 16.6034 41.2681 19.3364 39.7847Z" fill="#28303F"/>
<path fill-rule="evenodd" clip-rule="evenodd" d="M59.9404 50.4587C59.7044 52.3512 58.775 54.1361 57.2941 55.7335C59.1989 55.4064 60.9428 54.9317 62.4422 54.3319C63.9563 53.7263 65.3326 52.9489 66.3672 51.9705C67.4065 50.9876 68.25 49.6467 68.25 48.0002C68.25 46.3538 67.4065 45.0129 66.3672 44.03C65.3326 43.0516 63.9563 42.2742 62.4422 41.6685C59.7926 40.6087 56.3793 39.9393 52.6636 39.7847C55.3966 41.2681 57.5053 43.1131 58.7464 45.1827C59.484 45.38 60.1621 45.6031 60.771 45.8467C61.9713 46.3268 62.7917 46.8422 63.2752 47.2995C63.7506 47.7491 63.75 47.9864 63.75 48V48.0002V48.0005C63.75 48.014 63.7506 48.2514 63.2752 48.701C62.7917 49.1582 61.9713 49.6737 60.771 50.1538C60.5069 50.2594 60.2298 50.3612 59.9404 50.4587Z" fill="#28303F"/>
<path fill-rule="evenodd" clip-rule="evenodd" d="M49.5434 30.4565C48.8837 31.8378 48.0189 33.1023 46.9885 34.2107C48.176 34.8728 49.544 35.25 51.0002 35.25C55.5565 35.25 59.2502 31.5563 59.2502 27C59.2502 22.4437 55.5565 18.75 51.0002 18.75C50.6874 18.75 50.3786 18.7674 50.0748 18.8013C50.591 20.1982 50.9051 21.6929 50.9817 23.25C50.9879 23.25 50.994 23.25 51.0002 23.25C53.0712 23.25 54.7502 24.9289 54.7502 27C54.7502 29.0711 53.0712 30.75 51.0002 30.75C50.4835 30.75 49.9912 30.6455 49.5434 30.4565Z" fill="#28303F"/>
<path fill-rule="evenodd" clip-rule="evenodd" d="M21.9253 18.8013C21.6216 18.7674 21.3128 18.75 21 18.75C16.4437 18.75 12.75 22.4437 12.75 27C12.75 31.5563 16.4437 35.25 21 35.25C22.4561 35.25 23.8241 34.8728 25.0116 34.2107C23.9812 33.1023 23.1165 31.8378 22.4568 30.4565C22.0089 30.6455 21.5167 30.75 21 30.75C18.9289 30.75 17.25 29.0711 17.25 27C17.25 24.9289 18.9289 23.25 21 23.25C21.0061 23.25 21.0123 23.25 21.0184 23.25C21.0951 21.6929 21.4092 20.1982 21.9253 18.8013Z" fill="#28303F"/>
</svg>
