<svg width="174" height="44" viewBox="0 0 174 44" fill="none" xmlns="http://www.w3.org/2000/svg">
<path d="M15.9239 0L26.2423 25.9956H20.5472L18.3196 19.8067H7.83309L5.67904 25.9956H0.309692L10.5335 0H15.9239ZM9.48277 15.1939H16.7014L13.0238 5.20123L9.48277 15.1939Z" fill="#333333"/>
<path d="M40.8908 0C44.5754 0 47.3284 0.9772 49.1497 2.9316C50.971 4.886 52.0217 7.90166 52.3019 11.9786C52.3019 12.3428 52.3019 12.6931 52.3019 13.0293C52.3019 13.3656 52.3019 13.7404 52.3019 14.1536C52.262 15.9374 51.9684 17.7064 51.4298 19.4074C50.9051 21.0862 49.9226 22.5854 48.5928 23.7365C47.5874 24.6537 46.3593 25.2913 45.0307 25.5858C43.7171 25.8562 42.379 25.99 41.0379 25.9851H29.7948V0H40.8908ZM40.7857 4.52875H34.8804V21.4984H40.7857C40.834 21.51 40.8844 21.51 40.9328 21.4984H41.0799C41.8112 21.5011 42.5406 21.4236 43.255 21.2672C43.9975 21.0886 44.6572 20.6624 45.1253 20.0589C45.6635 19.3895 46.0506 18.6117 46.2601 17.7787C46.4729 16.9341 46.6135 16.0729 46.6804 15.2044C46.6804 14.8401 46.6804 14.4899 46.6804 14.1536V11.8945C46.6822 11.5014 46.6611 11.1084 46.6174 10.7177C46.572 9.87316 46.4417 9.03534 46.2286 8.21689C46.0232 7.41401 45.6348 6.66956 45.0938 6.04183C44.6239 5.43597 43.966 5.0035 43.2234 4.81245C42.5108 4.6436 41.7808 4.55896 41.0484 4.56027H40.7437L40.7857 4.52875Z" fill="#333333"/>
<path d="M65.1413 0L71.3092 19.9643L77.4771 0H84.927V25.9956H79.9464L80.3457 5.73711L74.1357 25.9956H68.7454L62.3358 5.53747L62.8401 25.9956H57.6494V0H65.1413Z" fill="#333333"/>
<path d="M91.8087 25.9956V0H97.1465V25.9956H91.8087Z" fill="#333333"/>
<path d="M116.565 0C116.81 0 117.052 0 117.29 0C117.521 0 117.763 0 118.015 0C118.935 0.0490937 119.845 0.20783 120.726 0.472838C121.626 0.747996 122.435 1.25966 123.069 1.9544C123.677 2.58373 124.143 3.3362 124.435 4.16098C124.738 5.00043 124.925 5.87704 124.992 6.76685C124.992 6.93497 124.992 7.10309 124.992 7.27121C124.992 7.43933 124.992 7.60746 124.992 7.77558C125.056 9.4167 124.651 11.0421 123.826 12.4619C123.412 13.1276 122.869 13.7033 122.228 14.1546C121.587 14.6058 120.862 14.9236 120.096 15.0888L126.138 25.9116H120.401L115.115 15.7823H109.115V25.9956H104.019V0H116.565ZM115.346 4.63382H109.105V11.1905H115.346C115.391 11.2016 115.438 11.2016 115.483 11.1905H115.62C116.628 11.2034 117.63 11.0252 118.572 10.6651C119.462 10.3149 119.896 9.39023 119.875 7.89116C119.854 6.39208 119.388 5.46392 118.478 5.10666C117.46 4.7774 116.395 4.61766 115.325 4.63382H115.346Z" fill="#333333"/>
<path d="M143.485 0L153.804 25.9956H148.14L145.913 19.8067H135.405L133.251 25.9956H127.892L138.116 0H143.485ZM137.076 15.1939H144.294L140.617 5.20123L137.076 15.1939Z" fill="#333333"/>
<path d="M162.693 25.6174C161.235 25.2927 159.93 24.4811 158.995 23.3162C158.048 22.2945 157.407 21.0276 157.145 19.6596C156.895 18.2727 156.772 16.8659 156.778 15.4566V0H161.874V14.2587C161.773 16.135 162.027 18.0134 162.62 19.7962C163.138 21.0781 164.735 21.7191 167.411 21.7191H173.411V26.0272H166.97C165.535 26.0236 164.103 25.8864 162.693 25.6174Z" fill="#333333"/>
<path d="M173.41 29.4424H0.3302V31.7645H173.41V29.4424Z" fill="#333333"/>
<path d="M19.3919 42.2407C19.0953 42.7103 18.6817 43.0947 18.1917 43.3563C17.7017 43.6178 17.1522 43.7476 16.5969 43.7327C15.4822 43.7327 14.4132 43.2899 13.625 42.5017C12.8367 41.7135 12.3939 40.6444 12.3939 39.5297C12.3939 38.415 12.8367 37.346 13.625 36.5578C14.4132 35.7695 15.4822 35.3267 16.5969 35.3267C17.1092 35.3049 17.619 35.4083 18.0823 35.628C18.5455 35.8477 18.9482 36.1771 19.2553 36.5876L18.6249 37.0815C18.403 36.7544 18.1036 36.4872 17.7535 36.3039C17.4033 36.1206 17.0132 36.0267 16.618 36.0307C15.7651 36.1355 14.9801 36.5486 14.4108 37.1921C13.8414 37.8357 13.5272 38.6652 13.5272 39.5245C13.5272 40.3837 13.8414 41.2133 14.4108 41.8568C14.9801 42.5004 15.7651 42.9135 16.618 43.0182C17.0559 43.03 17.4893 42.9266 17.8747 42.7182C18.2602 42.5098 18.5841 42.2038 18.814 41.8309L19.3919 42.2407Z" fill="#333333"/>
<path d="M25.8023 43.7326C24.9604 43.7959 24.1191 43.6042 23.3877 43.1825C22.6563 42.7609 22.0689 42.1287 21.7019 41.3684C21.335 40.6082 21.2054 39.755 21.3302 38.92C21.455 38.0851 21.8284 37.3071 22.4016 36.6874C22.9749 36.0676 23.7215 35.6349 24.5442 35.4455C25.3669 35.2561 26.2276 35.3189 27.0141 35.6256C27.8006 35.9323 28.4765 36.4688 28.9538 37.1651C29.4311 37.8614 29.6877 38.6853 29.6901 39.5296C29.7258 40.0643 29.6521 40.6007 29.4735 41.1059C29.2949 41.6112 29.015 42.0747 28.6511 42.4681C28.2872 42.8615 27.8469 43.1766 27.357 43.394C26.8672 43.6114 26.3382 43.7266 25.8023 43.7326ZM25.8023 36.0305C25.0969 35.9584 24.3863 36.1015 23.7639 36.4412C23.1415 36.7808 22.6366 37.301 22.3156 37.9333C21.9947 38.5655 21.8728 39.2801 21.966 39.983C22.0591 40.6859 22.363 41.3441 22.8376 41.8709C23.3122 42.3977 23.9352 42.7683 24.6246 42.9341C25.314 43.0999 26.0374 43.0529 26.6996 42.7995C27.3618 42.546 27.9316 42.0979 28.3342 41.5142C28.7367 40.9305 28.953 40.2386 28.9545 39.5296C28.9936 39.0893 28.9415 38.6458 28.8014 38.2266C28.6614 37.8075 28.4365 37.4217 28.1407 37.0933C27.8449 36.765 27.4845 36.5012 27.0822 36.3183C26.6799 36.1354 26.2442 36.0375 25.8023 36.0305Z" fill="#333333"/>
<path d="M38.4101 42.3458V35.5264H39.1667V43.5646H38.221L33.8919 36.6402V43.5646H33.1564V35.5264H34.1021L38.4101 42.3458Z" fill="#333333"/>
<path d="M45.3449 43.5639H44.5883V36.2087H42.0875V35.4836H47.8667V36.2087H45.3449V43.5639Z" fill="#333333"/>
<path d="M50.0629 43.5639H49.2328L52.4586 35.5571H53.1941L56.3464 43.5639H55.5058L54.6862 41.4624H50.8825L50.0629 43.5639ZM51.1136 40.7163H54.4025L52.7633 36.5133L51.1136 40.7163Z" fill="#333333"/>
<path d="M60.045 43.5646H59.2885V35.5264H60.045V43.5646Z" fill="#333333"/>
<path d="M69.113 42.3458V35.5264H69.9326V43.5646H68.9869L64.6473 36.6822V43.5646H63.8907V35.5264H64.8364L69.113 42.3458Z" fill="#333333"/>
<path d="M74.4193 42.8081H78.4121V43.5646H73.6627V35.5264H78.3386V36.2094H74.4193V38.9728H78.0339V39.6874H74.4193V42.8081Z" fill="#333333"/>
<path d="M82.4583 43.5646H81.7018V35.5264H83.8979C85.3689 35.5264 86.4512 36.1043 86.4512 37.6279C86.4769 38.1586 86.2912 38.6778 85.9346 39.0718C85.5781 39.4657 85.08 39.7022 84.5493 39.7294L86.7454 43.5646H85.8207L83.7192 39.8239H82.4583V43.5646ZM82.4583 39.1199H83.7718C84.9801 39.1199 85.6736 38.6471 85.6736 37.6909C85.6736 36.7347 84.9276 36.2094 83.8033 36.2094H82.4583V39.1199Z" fill="#333333"/>
<path d="M94.9827 42.8081H98.4607V43.5646H94.2577V35.5264H95.0142L94.9827 42.8081Z" fill="#333333"/>
<path d="M102.149 43.5646H101.393V35.5264H102.149V43.5646Z" fill="#333333"/>
<path d="M111.217 42.3458V35.5264H111.963V43.5646H111.017L106.709 36.6402V43.5646H105.952V35.5264H106.898L111.217 42.3458Z" fill="#333333"/>
<path d="M116.524 42.8081H120.516V43.5646H115.767V35.5264H120.369V36.2094H116.502V38.9728H120.117V39.6874H116.502L116.524 42.8081Z" fill="#333333"/>
<path d="M127.41 36.8083C127.245 36.554 127.017 36.3468 126.748 36.2069C126.479 36.0669 126.178 35.999 125.875 36.0097C125.671 35.9983 125.467 36.0287 125.275 36.099C125.082 36.1694 124.907 36.2783 124.758 36.4189C124.61 36.5596 124.491 36.7292 124.411 36.9172C124.33 37.1052 124.289 37.3077 124.289 37.5123C124.289 38.563 125.077 38.7942 125.907 39.0884C126.958 39.4667 128.124 39.824 128.124 41.4316C128.132 41.7483 128.074 42.0632 127.953 42.3559C127.832 42.6486 127.65 42.9125 127.42 43.1305C127.19 43.3485 126.917 43.5158 126.618 43.6213C126.32 43.7269 126.002 43.7684 125.686 43.7433C125.223 43.7486 124.766 43.6392 124.355 43.4247C123.944 43.2101 123.593 42.8972 123.333 42.5139L123.984 41.9885C124.147 42.3007 124.391 42.5632 124.691 42.7482C124.99 42.9331 125.334 43.0337 125.686 43.0393C125.9 43.0507 126.114 43.0184 126.315 42.9443C126.516 42.8702 126.7 42.7559 126.856 42.6084C127.011 42.4609 127.135 42.2833 127.219 42.0864C127.303 41.8894 127.347 41.6774 127.347 41.4631C127.347 40.3388 126.474 40.0656 125.529 39.7399C124.583 39.4142 123.532 38.9518 123.532 37.5018C123.533 37.1968 123.596 36.8952 123.719 36.6159C123.841 36.3366 124.02 36.0855 124.244 35.8784C124.468 35.6713 124.732 35.5126 125.02 35.4123C125.308 35.3119 125.613 35.2721 125.917 35.2952C126.32 35.2791 126.721 35.3593 127.087 35.5293C127.452 35.6992 127.772 35.954 128.019 36.2724L127.41 36.8083Z" fill="#333333"/>
<path d="M136.719 43.5646H135.962V35.5264H136.719V43.5646Z" fill="#333333"/>
<path d="M145.776 42.3458V35.5264H146.533V43.5646H145.587L141.247 36.6822V43.5646H140.491V35.5264H141.437L145.776 42.3458Z" fill="#333333"/>
<path d="M156.62 42.2407C156.323 42.7103 155.91 43.0947 155.42 43.3563C154.93 43.6178 154.38 43.7476 153.825 43.7327C152.71 43.7327 151.641 43.2899 150.853 42.5017C150.065 41.7135 149.622 40.6444 149.622 39.5297C149.622 38.415 150.065 37.346 150.853 36.5578C151.641 35.7695 152.71 35.3267 153.825 35.3267C154.337 35.3049 154.847 35.4083 155.31 35.628C155.774 35.8477 156.176 36.1771 156.483 36.5876L155.853 37.0815C155.631 36.7544 155.332 36.4872 154.981 36.3039C154.631 36.1206 154.241 36.0267 153.846 36.0307C152.993 36.1355 152.208 36.5486 151.639 37.1921C151.069 37.8357 150.755 38.6652 150.755 39.5245C150.755 40.3837 151.069 41.2133 151.639 41.8568C152.208 42.5004 152.993 42.9135 153.846 43.0182C154.284 43.03 154.717 42.9266 155.103 42.7182C155.488 42.5098 155.812 42.2038 156.042 41.8309L156.62 42.2407Z" fill="#333333"/>
<path d="M160.098 43.5643C159.976 43.5728 159.855 43.5443 159.749 43.4827C159.644 43.4211 159.559 43.3291 159.506 43.2187C159.454 43.1084 159.435 42.9847 159.454 42.8639C159.473 42.743 159.527 42.6306 159.61 42.5411C159.694 42.4516 159.802 42.3892 159.921 42.3621C160.04 42.335 160.165 42.3443 160.279 42.389C160.393 42.4336 160.49 42.5114 160.559 42.6124C160.628 42.7133 160.665 42.8326 160.666 42.9549C160.669 43.0322 160.656 43.1093 160.629 43.1817C160.602 43.2542 160.561 43.3206 160.508 43.3772C160.456 43.4338 160.392 43.4795 160.322 43.5116C160.252 43.5437 160.176 43.5616 160.098 43.5643Z" fill="#333333"/>
</svg>
