<svg width="115" height="70" viewBox="0 0 115 70" fill="none" xmlns="http://www.w3.org/2000/svg">
<g clip-path="url(#clip0_6003_189)">
<path d="M64.3525 7.66401C65.166 7.02181 68.7409 3.83221 70.5176 1.64872C70.6461 1.47747 70.5605 1.24199 70.3678 1.17777C61.0131 -1.54088 32.6919 1.09215 19.2485 21.4499C19.0559 21.7282 19.0987 21.8139 19.3127 21.9851C24.0008 14.3857 34.64 8.41325 47.5054 7.17166C52.7929 6.6579 58.1874 7.08603 63.4962 8.00652C64.01 8.04933 63.9886 7.96371 64.3525 7.66401Z" fill="#4C4C4C"/>
<path d="M51.2509 43.0715H54.9971L48.3824 27.0165H43.5016L36.887 43.0715H40.5261L41.5964 40.2887H50.1591L51.2509 43.0715ZM42.9023 37.2917L45.8778 29.5211L48.8533 37.2917H42.9023Z" fill="#111111"/>
<path d="M27.3188 41.359L31.4074 34.5302C31.5573 34.2734 32.3493 32.9033 32.6062 32.3682H32.649C32.6062 32.9675 32.6062 34.0379 32.6062 34.5302V43.0715H36.0313V27.0165H32.7561L27.5542 35.622L22.3524 27.0165H18.4778V43.0715H21.9029V34.5302C21.9029 34.0379 21.8815 32.989 21.86 32.3682H21.9029C22.1597 32.8819 22.9518 34.2734 23.1016 34.5302L27.1903 41.359H27.3188Z" fill="#111111"/>
<path d="M105.345 41.359L109.52 34.5302C109.669 34.2734 110.483 32.9033 110.74 32.3682H110.783C110.74 32.9675 110.74 34.0379 110.74 34.5302V43.0715H114.165V27.0165H110.676L105.474 35.622L100.272 27.0165H96.3972V43.0715H99.8223V34.5302C99.8223 34.0379 99.8009 32.989 99.7795 32.3682H99.8223C100.079 32.8819 100.893 34.2734 101.042 34.5302L105.217 41.359H105.345Z" fill="#111111"/>
<path d="M16.5505 38.3616H12.9113V38.4687C12.9113 39.7745 12.2049 40.0742 10.6422 40.0742H7.1743C4.54128 40.0742 4.13455 39.7531 4.13455 36.6919V33.1812C4.13455 30.3341 4.51987 30.013 7.11008 30.013H10.5138C12.055 30.013 12.7401 30.2913 12.7401 31.5115H16.7859C16.7859 28.0008 15.3945 26.802 11.0275 26.802H6.48929C2.33638 26.802 0.709473 28.3647 0.709473 32.4106V37.5268C0.709473 41.487 2.31498 43.0497 6.40366 43.0497H10.8777C15.2018 43.0497 16.5505 41.8723 16.5505 38.4259V38.3616Z" fill="#111111"/>
<path d="M75.8471 38.3616H72.2079V38.4687C72.2079 39.7745 71.5015 40.0742 69.9388 40.0742H66.4709C63.8379 40.0742 63.4312 39.7531 63.4312 36.6919V33.1812C63.4312 30.3341 63.8165 30.013 66.4067 30.013H69.8104C71.3517 30.013 72.0367 30.2913 72.0367 31.5115H76.0825C76.0825 28.0008 74.6911 26.802 70.3241 26.802H65.7859C61.633 26.802 60.0061 28.3861 60.0061 32.432V37.5482C60.0061 41.5084 61.6116 43.0497 65.7003 43.0497H70.1743C74.4985 43.0497 75.8471 41.8723 75.8471 38.4473V38.3616Z" fill="#111111"/>
<path d="M90.6184 36.8632V38.5543C90.6184 39.7959 89.9334 40.0742 88.3707 40.0742H84.2177C81.6061 40.0742 81.2208 39.7745 81.2208 36.8632V33.1812C81.2208 30.3341 81.6061 30.013 84.1963 30.013H88.1566C89.6979 30.013 90.3829 30.2913 90.3829 31.5115H94.4288C94.4288 28.0008 93.0373 26.802 88.6704 26.802H83.597C79.4441 26.802 77.8171 28.3861 77.8171 32.432V37.4626C77.8171 41.487 79.4226 43.0711 83.4685 43.0711H88.4349C92.7376 43.0711 94.0648 41.8723 94.0648 38.383V34.0803H85.9303V36.8632H90.6184Z" fill="#111111"/>
<path d="M50.4379 62.1232C49.6244 62.7654 46.0495 65.9549 44.2727 68.1384C44.1443 68.3097 44.2299 68.5452 44.4226 68.6094C53.7773 71.328 82.0984 68.6736 95.5419 48.3158C95.7345 48.0375 95.6917 47.9519 95.4776 47.7806C90.7896 55.38 80.1504 61.3525 67.285 62.5941C61.9975 63.1079 56.603 62.6797 51.2942 61.7592C50.7804 61.7164 50.8018 61.802 50.4379 62.1232Z" fill="#4C4C4C"/>
</g>
<defs>
<clipPath id="clip0_6003_189">
<rect width="114.74" height="70" fill="white" transform="translate(0.0241699)"/>
</clipPath>
</defs>
</svg>
