<svg width="80" height="70" viewBox="0 0 80 70" fill="none" xmlns="http://www.w3.org/2000/svg">
<path d="M34.3752 1.98071C30.844 1.98071 27.5296 3.38716 25.0304 5.81614V3.38834V2.78896H24.4855H12.2648H11.7199V3.38834V36.4844H11.6654C6.99273 36.4844 3.46173 34.4834 3.46173 34.4834L1.99658 37.1867C1.99658 37.1867 5.90657 39.5691 11.7198 39.5691C17.6953 39.5691 20.1945 36.9173 25.6811 36.9173C31.2228 36.9173 33.1231 39.5691 39.6424 39.5691C46.1075 39.5691 48.0651 36.9173 53.6068 36.9173C59.1477 36.9173 61.5933 39.5691 67.5681 39.5691C73.0504 39.5691 77.2368 37.1352 77.2368 37.1352L75.7687 34.4289C75.7687 34.4289 72.2393 36.4844 67.5681 36.4844V15.1216C67.5681 7.87079 61.6458 1.98071 54.4211 1.98071C50.5096 1.98071 46.9246 3.60238 44.4254 6.52145C41.8725 3.60238 38.2867 1.98071 34.3752 1.98071ZM29.1049 13.2266C31.1154 13.2266 32.7436 14.8464 32.7436 16.8502V35.1343C30.6796 34.4849 28.615 33.8356 25.6812 33.8356H25.5177V16.8502C25.5177 14.8464 27.1496 13.2266 29.1049 13.2266ZM50.1831 13.2266C52.1928 13.2266 53.7703 14.8464 53.7703 16.8502V33.8356H53.6068C50.673 33.8356 48.6085 34.4849 46.5445 35.1343V16.8502C46.5445 14.8464 48.1727 13.2266 50.1831 13.2266ZM25.5722 38.8092C22.041 38.8092 19.1091 39.7314 16.9357 41.1916C14.5451 42.8141 13.1881 45.1397 13.1881 48.0603C13.1881 52.2248 16.2306 54.7119 23.4018 56.4425C27.5305 57.4162 28.3453 57.7409 28.3996 58.9308C28.3996 59.3092 28.2897 59.5801 28.0182 59.8511C27.4207 60.4457 26.3877 60.6624 25.5722 60.6624C25.2463 60.6624 24.3253 60.6075 23.4562 60.175C22.6415 59.6885 22.151 58.9843 21.9881 58.0106L12.2648 58.0651C12.2648 60.8775 13.8383 63.4192 16.7178 65.3666C19.217 66.9891 22.4206 68.0184 25.4088 68.0184C31.8738 68.0184 38.8282 64.8799 38.8282 58.0651C38.8282 52.8187 33.8316 50.7082 32.3107 50.2217C30.8442 49.6804 28.8875 49.3045 27.1494 48.9261C25.8994 48.6551 24.7582 48.4366 23.8891 48.1663C23.2373 48.0041 22.8569 47.5175 22.8569 46.9221C22.8569 45.3537 24.703 45.1936 25.5177 45.1936C27.2023 45.1936 28.56 46.3817 28.56 47.7879H38.0139C38.0139 41.6218 31.5485 38.8092 25.5722 38.8092ZM53.6068 38.8638C49.2065 38.8638 46.0012 40.3258 43.4477 43.1382C41.057 45.7343 39.806 49.4104 39.806 53.4669C39.806 57.4692 41.057 61.1486 43.4477 63.7441C46.0012 66.5572 49.152 68.0184 53.5523 68.0184C57.5688 68.0184 61.2123 66.9366 63.4936 64.7188C65.5576 62.7721 66.8105 60.0129 67.2957 56.4971L67.3532 56.0097H66.8083H57.7359H57.3514L57.3 56.3881C56.6989 58.9843 55.1289 59.7967 53.7703 59.7967C50.6735 59.7967 49.9651 55.3596 49.9651 53.4669C49.9651 51.5201 50.6735 47.0856 53.7703 47.0856C55.071 47.0856 56.6989 47.9525 57.3 50.5487L57.3514 50.8726H57.7359H66.8083H67.3532L67.2957 50.3852C66.8105 46.8693 65.5576 44.1102 63.4936 42.1634C61.2123 39.9997 57.569 38.8638 53.6068 38.8638Z" fill="black"/>
</svg>
