<svg width="80" height="70" viewBox="0 0 80 70" fill="none" xmlns="http://www.w3.org/2000/svg">
<path d="M34.3754 1.98071C30.8441 1.98071 27.5298 3.38716 25.0305 5.81614V3.38834V2.78896H24.4856H12.2649H11.72V3.38834V36.4844H11.6655C6.99285 36.4844 3.46185 34.4834 3.46185 34.4834L1.9967 37.1867C1.9967 37.1867 5.90669 39.5691 11.72 39.5691C17.6955 39.5691 20.1946 36.9173 25.6813 36.9173C31.223 36.9173 33.1232 39.5691 39.6426 39.5691C46.1076 39.5691 48.0652 36.9173 53.6069 36.9173C59.1479 36.9173 61.5934 39.5691 67.5682 39.5691C73.0505 39.5691 77.237 37.1352 77.237 37.1352L75.7688 34.4289C75.7688 34.4289 72.2394 36.4844 67.5682 36.4844V15.1216C67.5682 7.87079 61.646 1.98071 54.4212 1.98071C50.5097 1.98071 46.9248 3.60238 44.4255 6.52145C41.8726 3.60238 38.2868 1.98071 34.3754 1.98071ZM29.1051 13.2266C31.1155 13.2266 32.7437 14.8464 32.7437 16.8502V35.1343C30.6797 34.4849 28.6151 33.8356 25.6813 33.8356H25.5179V16.8502C25.5179 14.8464 27.1497 13.2266 29.1051 13.2266ZM50.1832 13.2266C52.1929 13.2266 53.7704 14.8464 53.7704 16.8502V33.8356H53.607C50.6732 33.8356 48.6086 34.4849 46.5446 35.1343V16.8502C46.5446 14.8464 48.1728 13.2266 50.1832 13.2266ZM25.5724 38.8092C22.0411 38.8092 19.1092 39.7314 16.9358 41.1916C14.5452 42.8141 13.1882 45.1397 13.1882 48.0603C13.1882 52.2248 16.2307 54.7119 23.4019 56.4425C27.5306 57.4162 28.3454 57.7409 28.3997 58.9308C28.3997 59.3092 28.2898 59.5801 28.0183 59.8511C27.4208 60.4457 26.3878 60.6624 25.5724 60.6624C25.2465 60.6624 24.3254 60.6075 23.4564 60.175C22.6416 59.6885 22.1511 58.9843 21.9882 58.0106L12.2649 58.0651C12.2649 60.8775 13.8384 63.4192 16.7179 65.3666C19.2171 66.9891 22.4208 68.0184 25.4089 68.0184C31.8739 68.0184 38.8283 64.8799 38.8283 58.0651C38.8283 52.8187 33.8317 50.7082 32.3108 50.2217C30.8443 49.6804 28.8876 49.3045 27.1495 48.9261C25.8995 48.6551 24.7583 48.4366 23.8892 48.1663C23.2374 48.0041 22.857 47.5175 22.857 46.9221C22.857 45.3537 24.7031 45.1936 25.5179 45.1936C27.2024 45.1936 28.5602 46.3817 28.5602 47.7879H38.014C38.014 41.6218 31.5486 38.8092 25.5724 38.8092ZM53.607 38.8638C49.2066 38.8638 46.0014 40.3258 43.4478 43.1382C41.0572 45.7343 39.8061 49.4104 39.8061 53.4669C39.8061 57.4692 41.0572 61.1486 43.4478 63.7441C46.0014 66.5572 49.1521 68.0184 53.5525 68.0184C57.569 68.0184 61.2124 66.9366 63.4937 64.7188C65.5577 62.7721 66.8106 60.0129 67.2958 56.4971L67.3533 56.0097H66.8084H57.736H57.3515L57.3001 56.3881C56.699 58.9843 55.129 59.7967 53.7704 59.7967C50.6737 59.7967 49.9653 55.3596 49.9653 53.4669C49.9653 51.5201 50.6737 47.0856 53.7704 47.0856C55.0711 47.0856 56.699 47.9525 57.3001 50.5487L57.3515 50.8726H57.736H66.8084H67.3533L67.2958 50.3852C66.8106 46.8693 65.5577 44.1102 63.4937 42.1634C61.2124 39.9997 57.5691 38.8638 53.607 38.8638Z" fill="black"/>
</svg>
