<svg width="192" height="44" viewBox="0 0 192 44" fill="none" xmlns="http://www.w3.org/2000/svg">
<g clip-path="url(#clip0_6003_178)">
<path fill-rule="evenodd" clip-rule="evenodd" d="M58.6157 30.5786V11.9526H63.5721L69.8522 25.8716L76.0391 11.9526H80.7872V30.5786H76.7002V19.743L71.9847 30.5786H67.628L62.8519 19.802V30.5786H58.6157Z" fill="#0A0A0A"/>
<path fill-rule="evenodd" clip-rule="evenodd" d="M97.2359 23.367L93.8162 15.4718L90.4749 23.367H97.2359ZM87.418 30.5786H82.6116L90.8734 11.9526H96.7908L105.112 30.5786H100.367L98.7298 26.8683H89.0051L87.418 30.5786Z" fill="#0A0A0A"/>
<path fill-rule="evenodd" clip-rule="evenodd" d="M107.028 30.5786V11.9526H124.812V15.6769H111.323V19.3763H122.888V23.0112H111.323V26.8528H124.844V30.5786H107.028Z" fill="#0A0A0A"/>
<path fill-rule="evenodd" clip-rule="evenodd" d="M132.659 20.5051H142.003V15.6769H132.659V20.5051ZM128.303 30.5786V11.9526H143.184C145.172 11.9526 146.327 13.1032 146.327 15.0764V21.334C146.327 22.7735 145.052 24.0747 142.581 24.0747C142.441 24.0817 142.298 24.0747 142.151 24.0747L146.483 30.5786H141.702L137.595 24.2099H132.659V30.5786H128.303Z" fill="#0A0A0A"/>
<path fill-rule="evenodd" clip-rule="evenodd" d="M154.164 30.5889H152.69C150.765 30.5889 149.838 29.4764 149.838 27.8567V25.4236H154.164V26.8646H163.357V23.0518C163.357 23.0518 154.495 23.0518 152.812 23.0518C151.129 23.0518 149.916 21.9199 149.916 20.3491V14.8195C149.916 13.1461 151.236 11.9637 152.842 11.9637C154.447 11.9637 164.896 11.9637 164.896 11.9637C166.525 11.9637 167.652 13.1795 167.652 14.9376C167.652 16.6933 167.652 17.1601 167.652 17.1601H163.357V15.688H154.164V19.3563H164.678C166.23 19.3563 167.652 20.3833 167.652 22.3604V27.6765C167.652 29.4873 166.648 30.5889 164.769 30.5889C162.891 30.5889 154.164 30.5889 154.164 30.5889Z" fill="#0A0A0A"/>
<path fill-rule="evenodd" clip-rule="evenodd" d="M171.802 30.5887V11.9612H176.217V19.4112L184.628 11.9612H190.607L180.573 20.6138L190.968 30.5887H184.778L176.217 22.1163V30.5887H171.802Z" fill="#0A0A0A"/>
<path fill-rule="evenodd" clip-rule="evenodd" d="M40.7981 37.5839C40.7981 40.2462 38.6407 42.4043 35.9784 42.4043H5.5536C2.89053 42.4043 0.732422 40.2462 0.732422 37.5839V4.94422C0.732422 2.28193 2.89053 0.123047 5.5536 0.123047H35.9784C38.6407 0.123047 40.7981 2.28193 40.7981 4.94422V37.5839Z" fill="#939393"/>
<path fill-rule="evenodd" clip-rule="evenodd" d="M27.1523 20.167L35.0583 10.252L35.0335 10.2201L23.6075 15.7226L20.7851 3.35815H20.7455L17.9232 15.7226L6.49719 10.2201L6.47233 10.252L14.3792 20.167L2.95239 25.6695L2.96249 25.7083H15.6439L12.8216 38.0736L12.8573 38.0899L20.7657 28.1749L28.6726 38.0899L28.7083 38.072L25.8875 25.7083H38.569L38.5783 25.6695L27.1523 20.167Z" fill="#FFFFFE"/>
</g>
<defs>
<clipPath id="clip0_6003_178">
<rect width="190.524" height="43.75" fill="white" transform="translate(0.5)"/>
</clipPath>
</defs>
</svg>
