<svg width="110" height="70" viewBox="0 0 110 70" fill="none" xmlns="http://www.w3.org/2000/svg">
<g clip-path="url(#clip0_6003_268)">
<path d="M96.4527 38.9061C88.9552 38.9061 86.2803 34.4479 86.2803 30.2723C86.2803 24.8735 90.2873 21.6494 97.0018 21.6494C104.07 21.6494 107.995 24.6506 107.995 30.0929C107.995 35.7962 104.401 38.6778 97.0127 38.8952L96.4527 38.9061ZM96.9964 25.0692C93.1308 25.0692 92.3207 27.7877 92.3207 30.1092C92.3207 33.529 93.8865 35.122 97.2139 35.122C100.541 35.122 102.107 33.4583 102.107 30.044C102.107 26.2762 100.851 25.0692 96.9475 25.0692H96.9964Z" fill="#414141"/>
<path d="M74.6847 38.2375V38.2048C67.0241 37.7916 65.3985 33.665 65.3931 30.2615C65.3931 27.9617 66.0836 26.1132 67.4645 24.7648C69.1391 23.1338 71.7814 22.3074 75.3263 22.3074H75.9787H83.835V25.5695H76.0494C74.5216 25.5695 73.3907 25.9283 72.6894 26.6569C71.988 27.3854 71.6401 28.5109 71.6781 30.0549V30.2017C71.6781 31.5664 71.6781 34.4099 76.256 34.7416L83.8296 34.8394V38.2375H74.6847Z" fill="#414141"/>
<path d="M46.3193 38.0198V34.7577H54.7791C55.3228 34.7577 56.3123 34.6761 56.8397 34.1379C56.9599 34.0078 57.0516 33.8541 57.1087 33.6864C57.1658 33.5188 57.1872 33.3411 57.1714 33.1647C57.1387 32.0773 56.4646 31.5662 55.051 31.5662H51.4028C49.3042 31.5173 47.8362 31.0497 46.9174 30.1363C46.1399 29.3588 45.7756 28.315 45.7756 26.8361C45.7756 23.6066 47.7057 22.1006 51.8432 22.1006H62.2603V25.3627H53.1481C52.651 25.3033 52.1492 25.4249 51.7345 25.7052C51.4675 26.023 51.3366 26.4333 51.3702 26.847C51.3484 27.0317 51.3642 27.2188 51.4165 27.3973C51.4688 27.5757 51.5566 27.7418 51.6747 27.8854C52.0552 28.2715 52.8218 28.3041 53.6428 28.3041H56.296C59.3679 28.3041 61.0316 29.3045 61.8906 30.1417C62.3061 30.5368 62.6367 31.0126 62.862 31.5398C63.0873 32.0671 63.2026 32.6348 63.2009 33.2082C63.2361 33.824 63.1464 34.4406 62.9371 35.0208C62.7278 35.601 62.4032 36.1329 61.983 36.5845C61.0424 37.5196 59.5527 37.9981 57.5628 37.9981H55.3881H46.3193V38.0198Z" fill="#414141"/>
<path d="M31.5369 38.9608C24.0395 38.9608 21.3645 34.5025 21.3645 30.327C21.3645 24.9282 25.3715 21.7041 32.0915 21.7041C39.1595 21.7041 43.0903 24.7053 43.0903 30.1476C43.0903 35.8509 39.4965 38.7325 32.1078 38.9499H31.5641L31.5369 38.9608ZM32.0806 25.1239C28.215 25.1239 27.4049 27.8424 27.4049 30.1639C27.4049 33.5837 28.9653 35.1767 32.2981 35.1767C35.6309 35.1767 37.1913 33.513 37.1913 30.0987C37.1913 26.3309 35.9354 25.1239 32.0317 25.1239H32.0806Z" fill="#414141"/>
<path d="M9.95181 38.2375V38.2048C2.29122 37.7916 0.665593 33.665 0.660156 30.2615C0.660156 27.9617 1.35064 26.1132 2.73161 24.7648C4.40618 23.1338 7.04307 22.3074 10.5825 22.3074H11.2458H19.1021V25.5695H11.2838C9.78326 25.5695 8.66326 25.9283 7.9619 26.6569C6.98326 27.641 7.00501 29.1524 7.01588 29.9625V30.4464C6.9452 31.7295 6.79841 34.3827 11.5339 34.7198L19.1075 34.8177V38.2157L9.95181 38.2375Z" fill="#414141"/>
<path d="M37.9519 51.6175V42.0812H35.0921V51.6175H37.9519Z" fill="#414141"/>
<path d="M73.8354 51.7756V42.2393H70.9756V51.7756H73.8354Z" fill="#414141"/>
<path d="M56.7644 51.7046V42.1683H62.87C66.3007 42.3858 67.0184 43.9081 67.0184 45.1478C67.0184 46.893 65.284 48.1163 62.7939 48.1163H59.6242V51.7046H56.7644ZM62.31 46.5613C63.3974 46.5613 64.0553 46.0448 64.0553 45.1478C64.0553 44.3431 63.305 43.7342 62.31 43.7342H59.6188V46.5613H62.31Z" fill="#414141"/>
<path d="M42.8892 51.7704V42.2341H48.9894C52.42 42.4516 53.1377 43.9739 53.1377 45.2136C53.1377 46.9588 51.3979 48.1821 48.9132 48.1821H45.7435V51.7596L42.8892 51.7704ZM48.4348 46.6271C49.5222 46.6271 50.1746 46.1106 50.1746 45.2136C50.1746 44.4089 49.4243 43.8 48.4348 43.8H45.749V46.6271H48.4348Z" fill="#414141"/>
<path d="M97.6712 51.6232C96.2423 51.6812 94.8466 51.1822 93.7784 50.2314C93.3273 49.7763 92.9755 49.2325 92.7453 48.6345C92.5151 48.0365 92.4115 47.3973 92.4409 46.7572C92.4409 43.6201 94.3873 41.8966 97.9159 41.8966H103.385V44.278H97.0079C96.0565 44.4139 95.3225 45.4795 95.3225 46.7572C95.3225 48.1653 96.1815 49.3125 97.2363 49.3125L100.705 49.2419V46.9257H103.38V51.6178H97.6712V51.6232Z" fill="#414141"/>
<path d="M81.4479 51.6175H78.5881V42.0812H81.2848L85.8029 47.7355V42.2334H88.6627V51.7697H86.0367L81.4479 46.0936V51.6175Z" fill="#414141"/>
<path d="M23.2239 47.8715L23.2402 51.6175H20.375V42.0812H23.2402L23.2076 45.7402L27.481 45.8218V42.0812H30.3408V51.6175H27.481V47.8715H23.2239Z" fill="#414141"/>
<path d="M5.95003 51.7703V49.7314H11.4304C12.8984 49.6771 12.8984 49.1062 12.8984 48.7963C12.8984 48.2526 12.3547 47.9046 11.4195 47.8666H9.0545C7.77139 47.8394 6.87974 47.5567 6.33605 47.0021C6.08716 46.731 5.89688 46.4114 5.77714 46.0634C5.65739 45.7154 5.61075 45.3464 5.64013 44.9796C5.64013 43.0332 6.85255 42.0872 9.34265 42.0872H15.6331V44.1314H10.1962C9.76784 44.0915 9.34027 44.2159 9.00013 44.4794C8.92821 44.5495 8.87247 44.6345 8.83679 44.7284C8.8011 44.8223 8.78634 44.9229 8.79352 45.0231C8.79352 45.7244 9.58731 45.8712 10.2506 45.8712H13.1104C13.9684 45.859 14.8001 46.1673 15.4428 46.7357C15.7122 47.0176 15.9211 47.3516 16.0567 47.7171C16.1923 48.0827 16.2516 48.4722 16.2312 48.8615C16.2513 49.2362 16.1952 49.611 16.0662 49.9633C15.9373 50.3156 15.7381 50.6381 15.4809 50.9112C14.7264 51.552 13.7493 51.8685 12.7625 51.792H11.4413L5.95003 51.7703Z" fill="#414141"/>
<path d="M95.1809 18.1103C88.2271 7.0082 76.9673 0.641602 64.2939 0.641602C51.2128 0.641602 39.1646 7.32898 32.9394 18.143L32.673 18.5833H37.1965L37.2835 18.4257C42.9759 8.3783 52.6046 2.84354 64.4734 2.84354C75.1405 2.84354 85.96 9.2482 90.7934 18.4148L90.8803 18.5779H95.4745L95.1809 18.1103Z" fill="#4D4D4D"/>
<path d="M18.2985 18.6483H13.7424L14.0578 18.1046C14.6015 17.164 15.1778 16.2506 15.7921 15.3862C22.3545 6.11084 33.4022 0.543457 45.3362 0.543457C57.803 0.543457 68.231 6.42618 76.3265 18.0285L76.6853 18.6374H71.8356L71.7269 18.4308C67.7362 10.9007 57.0473 2.89763 45.1514 2.89763C39.7137 2.89319 34.3726 4.33427 29.6751 7.07327C24.9776 9.81226 21.0927 13.7507 18.4182 18.4852L18.2985 18.6483Z" fill="#414141"/>
<path d="M73.9336 54.7553H69.7254L69.633 54.8749C66.7183 58.6477 62.9671 61.6919 58.6751 63.7676C54.3832 65.8433 49.6677 66.8937 44.9006 66.8361C35.0054 66.8361 26.6707 62.7041 20.7988 54.8749L20.7064 54.7499H16.4221L16.8081 55.2501C20.1781 59.556 24.4923 63.0303 29.4177 65.4049C34.3431 67.7794 39.7482 68.9908 45.2159 68.9456C56.4159 68.9456 66.5231 64.2373 73.341 55.6035C73.5095 55.3914 73.7542 55.0163 73.9336 54.7553Z" fill="#414141"/>
<path d="M64.1139 68.9507C58.6461 68.996 53.241 67.7846 48.3156 65.41C43.3902 63.0354 39.0761 59.5612 35.7061 55.2552L35.3201 54.755H39.7511L39.8436 54.8692C45.8241 62.3449 54.4199 66.6346 63.3527 66.6346H63.8964C68.5794 66.4962 73.1813 65.3771 77.4049 63.3495C81.6285 61.322 85.3799 58.4312 88.4168 54.8637L88.5092 54.755H92.9348L92.5488 55.2552C89.176 59.5648 84.8575 63.0413 79.9271 65.416C74.9966 67.7908 69.5862 69.0001 64.1139 68.9507Z" fill="#4D4D4D"/>
</g>
<defs>
<clipPath id="clip0_6003_268">
<rect width="108.738" height="70" fill="white" transform="translate(0.410645)"/>
</clipPath>
</defs>
</svg>
