<svg width="252" height="39" viewBox="0 0 252 39" fill="none" xmlns="http://www.w3.org/2000/svg">
<g clip-path="url(#clip0_6003_217)">
<path fill-rule="evenodd" clip-rule="evenodd" d="M15.8972 0H32.6376L22.2081 17.4082H24.9468L35.4026 0H52.2452L41.8166 17.4082H53.4947L48.776 25.1299L37.1094 25.1246L46.1907 37.6239H29.3702L20.3022 25.1299H17.4225L26.4959 37.6239H9.87537L0.76416 25.1299L15.8972 0Z" fill="#1C1C1C"/>
<path fill-rule="evenodd" clip-rule="evenodd" d="M73.5994 31.755H78.7665V21.6181H88.2786V31.755H93.4458V8.25525H88.2786V17.2739H78.7665V8.25525H73.5994V31.755Z" fill="black"/>
<path fill-rule="evenodd" clip-rule="evenodd" d="M105.991 25.1732C105.991 26.1936 105.859 29.09 102.206 29.09C100.692 29.09 99.3431 28.6617 99.3431 26.917C99.3431 25.2058 100.66 24.7124 102.107 24.4163C103.555 24.1528 105.201 24.1194 105.991 23.4285V25.1732ZM99.8692 19.9726C100.034 18.1301 101.186 17.4058 102.963 17.4058C104.609 17.4058 105.991 17.7019 105.991 19.71C105.991 21.6186 103.325 21.5199 100.462 21.9473C97.5658 22.3429 94.6694 23.2646 94.6694 27.1144C94.6694 30.6038 97.2363 32.2164 100.462 32.2164C102.536 32.2164 104.708 31.6568 106.189 30.1095C106.221 30.669 106.353 31.2286 106.518 31.7555H111.257C110.829 31.0647 110.664 29.5174 110.664 27.9709V19.117C110.664 15.0363 106.584 14.2794 103.194 14.2794C99.3757 14.2794 95.459 15.5959 95.1955 19.9726H99.8692Z" fill="black"/>
<path fill-rule="evenodd" clip-rule="evenodd" d="M112.183 37.7456H116.856V29.6495H116.922C118.041 31.3273 119.983 32.2163 122.023 32.2163C126.993 32.2163 129.494 27.9709 129.494 23.4285C129.494 18.5909 127.092 14.2794 121.76 14.2794C119.654 14.2794 117.81 15.1015 116.692 16.9123H116.626V14.7403H112.183V37.7456ZM120.773 28.6943C117.745 28.6943 116.692 26.0614 116.692 23.2972C116.692 20.5321 117.679 17.8005 120.74 17.8005C123.735 17.8005 124.821 20.5982 124.821 23.2972C124.821 26.0614 123.834 28.6943 120.773 28.6943Z" fill="black"/>
<path fill-rule="evenodd" clip-rule="evenodd" d="M141.443 25.173C141.443 26.1934 141.312 29.0897 137.659 29.0897C136.145 29.0897 134.795 28.6615 134.795 26.9168C134.795 25.2056 136.112 24.7121 137.56 24.4161C139.008 24.1526 140.654 24.1191 141.443 23.4283V25.173ZM135.322 19.9724C135.487 18.1299 136.639 17.4055 138.416 17.4055C140.062 17.4055 141.443 17.7016 141.443 19.7098C141.443 21.6184 138.778 21.5197 135.914 21.947C133.018 22.3427 130.122 23.2644 130.122 27.1142C130.122 30.6036 132.689 32.2161 135.914 32.2161C137.988 32.2161 140.161 31.6566 141.641 30.1092C141.674 30.6688 141.806 31.2283 141.97 31.7553H146.709C146.282 31.0644 146.117 29.5171 146.117 27.9707V19.1168C146.117 15.0361 142.036 14.2792 138.646 14.2792C134.829 14.2792 130.912 15.5956 130.648 19.9724H135.322Z" fill="black"/>
<path fill-rule="evenodd" clip-rule="evenodd" d="M164.65 14.7403H160.207V17.011H160.141C159.022 15.0363 157.311 14.2794 155.072 14.2794C150.3 14.2794 147.766 18.294 147.766 22.7051C147.766 27.3779 149.938 31.2621 155.04 31.2621C157.081 31.2621 159.121 30.4064 160.141 28.6291H160.207V30.8664C160.24 33.3019 159.055 35.0792 156.455 35.0792C154.809 35.0792 153.394 34.4871 152.966 32.7433H148.325C148.556 36.6266 152.473 38.2065 155.829 38.2065C163.663 38.2065 164.65 33.4667 164.65 30.669V14.7403ZM156.224 27.74C153.361 27.74 152.44 25.0745 152.44 22.639C152.44 20.1048 153.591 17.8005 156.224 17.8005C159.253 17.8005 160.207 20.2696 160.207 23.0338C160.207 25.4693 158.891 27.74 156.224 27.74Z" fill="black"/>
<path fill-rule="evenodd" clip-rule="evenodd" d="M165.938 24.7771H175.844V20.7616H165.938V24.7771Z" fill="black"/>
<path fill-rule="evenodd" clip-rule="evenodd" d="M177.097 31.755H193.718V27.4108H182.264V8.25525H177.097V31.755Z" fill="black"/>
<path fill-rule="evenodd" clip-rule="evenodd" d="M194.804 31.7549H199.478V8.2561H194.804V31.7549Z" fill="black"/>
<path fill-rule="evenodd" clip-rule="evenodd" d="M200.529 23.2646C200.529 28.6617 203.985 32.2164 209.317 32.2164C214.681 32.2164 218.137 28.6617 218.137 23.2646C218.137 17.834 214.681 14.2794 209.317 14.2794C203.985 14.2794 200.529 17.834 200.529 23.2646ZM205.203 23.2646C205.203 20.5321 206.157 17.8005 209.317 17.8005C212.509 17.8005 213.464 20.5321 213.464 23.2646C213.464 25.9627 212.509 28.6943 209.317 28.6943C206.157 28.6943 205.203 25.9627 205.203 23.2646Z" fill="black"/>
<path fill-rule="evenodd" clip-rule="evenodd" d="M234.563 14.74H229.726L226.007 26.3907H225.94L222.09 14.74H217.087L223.078 30.7022C223.604 32.0513 223.078 33.7299 221.465 33.8947C220.543 33.9273 219.622 33.796 218.733 33.7299V37.5806C219.688 37.6793 220.642 37.7454 221.596 37.7454C224.821 37.7454 226.435 36.6263 227.454 33.8947L234.563 14.74Z" fill="black"/>
<path fill-rule="evenodd" clip-rule="evenodd" d="M246.18 31.755H250.623V8.25525H245.949V16.8131H245.884H245.917C244.83 15.1345 242.856 14.2789 240.848 14.2789C235.846 14.2789 233.311 18.5243 233.311 23.0993C233.311 27.8056 235.812 32.2158 240.947 32.2158C243.119 32.2158 245.028 31.4263 246.114 29.5829H246.18V31.755ZM246.114 23.198C246.114 25.9957 245.192 28.6938 242.099 28.6938C239.202 28.6938 237.984 25.8961 237.984 23.2306C237.984 20.4329 239.038 17.8 242.099 17.8C245.127 17.8 246.114 20.4329 246.114 23.198Z" fill="black"/>
</g>
<defs>
<clipPath id="clip0_6003_217">
<rect width="250.25" height="38.5" fill="white" transform="translate(0.76416)"/>
</clipPath>
</defs>
</svg>
