<svg width="76" height="70" viewBox="0 0 76 70" fill="none" xmlns="http://www.w3.org/2000/svg">
<g clip-path="url(#clip0_68_2753)">
<path fill-rule="evenodd" clip-rule="evenodd" d="M7.82729 0L5.60742 3.87361H0.983154L3.29471 7.93059L0.983154 11.9761H5.60742L7.82729 15.8497L10.0472 11.9761H14.6714L12.3587 7.93059L14.6714 3.87361H10.0472L7.82729 0ZM27.907 0L25.6871 3.87361H21.0629L23.3744 7.93059L21.0629 11.9761H25.6871L27.907 15.8497L30.1258 11.9761H34.75L32.4385 7.93059L34.75 3.87361H30.1258L27.907 0ZM47.9833 0L45.7669 3.87361H41.1426L43.4542 7.93059L41.1426 11.9761H45.7669L47.9833 15.8497L50.2021 11.9761H54.8263L52.5147 7.93059L54.8263 3.87361H50.2021L47.9833 0ZM68.1272 0L65.9073 3.87361H61.2831L63.5958 7.93059L61.2831 11.9761H65.9073L68.1272 15.8497L70.3471 11.9761H74.9714L72.6587 7.93059L74.9714 3.87361H70.3471L68.1272 0ZM18.1577 17.5573L15.9378 21.4309H11.3135L13.6262 25.4764L11.3135 29.5219H15.9378L18.1577 33.407L20.3776 29.5219H25.0018L22.6903 25.4764L25.0018 21.4309H20.3776L18.1577 17.5573ZM37.9773 17.5573L35.7574 21.4309H31.1331L33.4458 25.4764L31.1331 29.5219H35.7574L37.9773 33.407L40.1971 29.5219H44.8214L42.5087 25.4764L44.8214 21.4309H40.1971L37.9773 17.5573ZM57.7968 17.5573L55.577 21.4309H50.9527L53.2643 25.4764L50.9527 29.5219H55.577L57.7968 33.407L60.0167 29.5219H64.641L62.3283 25.4764L64.641 21.4309H60.0167L57.7968 17.5573ZM1.19173 38.759V48.019L15.0003 48.0419L1.19173 60.591V70H29.6433V61.0151H14.417L29.6433 47.8242V38.759H1.19173ZM33.1444 38.759V70H41.0429V38.759H33.1444ZM44.2048 38.759V70H52.5766V55.3078L57.5527 70H62.2629L67.2402 55.3078V70H74.9439V38.759H65.0719L59.9617 53.1762L54.8469 38.759H44.2048Z" fill="#222D60"/>
</g>
<defs>
<clipPath id="clip0_68_2753">
<rect width="74.6667" height="70" fill="white" transform="translate(0.643066)"/>
</clipPath>
</defs>
</svg>
