<svg width="174" height="44" viewBox="0 0 174 44" fill="none" xmlns="http://www.w3.org/2000/svg">
<path d="M15.9239 0.125L26.2423 26.1206H20.5472L18.3196 19.9317H7.83309L5.67904 26.1206H0.309692L10.5335 0.125H15.9239ZM9.48277 15.3189H16.7014L13.0238 5.32623L9.48277 15.3189Z" fill="#1B3665"/>
<path d="M40.8908 0.125C44.5754 0.125 47.3284 1.1022 49.1497 3.0566C50.971 5.011 52.0217 8.02666 52.3019 12.1036C52.3019 12.4678 52.3019 12.8181 52.3019 13.1543C52.3019 13.4906 52.3019 13.8653 52.3019 14.2786C52.262 16.0624 51.9684 17.8314 51.4298 19.5324C50.9051 21.2112 49.9226 22.7104 48.5928 23.8615C47.5874 24.7787 46.3593 25.4163 45.0307 25.7108C43.7171 25.9812 42.379 26.115 41.0379 26.1101H29.7948V0.125H40.8908ZM40.7857 4.65375H34.8804V21.6234H40.7857C40.834 21.635 40.8844 21.635 40.9328 21.6234H41.0799C41.8112 21.6261 42.5406 21.5486 43.255 21.3922C43.9976 21.2136 44.6572 20.7874 45.1253 20.1839C45.6635 19.5145 46.0506 18.7367 46.2601 17.9037C46.4729 17.0591 46.6135 16.1979 46.6804 15.3294C46.6804 14.9651 46.6804 14.6149 46.6804 14.2786V12.0195C46.6822 11.6264 46.6611 11.2334 46.6174 10.8427C46.572 9.99816 46.4417 9.16034 46.2286 8.34189C46.0232 7.53901 45.6348 6.79456 45.0938 6.16683C44.6239 5.56097 43.966 5.1285 43.2234 4.93745C42.5108 4.7686 41.7808 4.68396 41.0484 4.68527H40.7437L40.7857 4.65375Z" fill="#1B3665"/>
<path d="M65.1413 0.125061L71.3092 20.0894L77.4771 0.125061H84.927V26.1207H79.9464L80.3457 5.86217L74.1357 26.1207H68.7454L62.3358 5.66253L62.8401 26.1207H57.6494V0.125061H65.1413Z" fill="#1B3665"/>
<path d="M91.8087 26.1206V0.125H97.1465V26.1206H91.8087Z" fill="#1B3665"/>
<path d="M116.565 0.125061C116.81 0.125061 117.052 0.125061 117.29 0.125061C117.521 0.125061 117.763 0.125061 118.015 0.125061C118.935 0.174155 119.845 0.332891 120.726 0.597899C121.626 0.873057 122.435 1.38472 123.069 2.07946C123.677 2.70879 124.143 3.46126 124.435 4.28604C124.738 5.12549 124.925 6.0021 124.992 6.89191C124.992 7.06003 124.992 7.22815 124.992 7.39627C124.992 7.56439 124.992 7.73252 124.992 7.90064C125.056 9.54176 124.651 11.1671 123.826 12.587C123.412 13.2527 122.869 13.8283 122.228 14.2796C121.587 14.7309 120.862 15.0486 120.096 15.2139L126.138 26.0366H120.401L115.115 15.9074H109.115V26.1207H104.019V0.125061H116.565ZM115.346 4.75888H109.105V11.3156H115.346C115.391 11.3267 115.438 11.3267 115.483 11.3156H115.62C116.628 11.3285 117.63 11.1502 118.572 10.7902C119.462 10.44 119.896 9.51529 119.875 8.01622C119.854 6.51714 119.388 5.58898 118.478 5.23172C117.46 4.90246 116.395 4.74272 115.325 4.75888H115.346Z" fill="#1B3665"/>
<path d="M143.485 0.125L153.804 26.1206H148.14L145.913 19.9317H135.405L133.251 26.1206H127.892L138.116 0.125H143.485ZM137.076 15.3189H144.294L140.617 5.32623L137.076 15.3189Z" fill="#1B3665"/>
<path d="M162.693 25.7424C161.235 25.4177 159.93 24.6062 158.995 23.4413C158.048 22.4196 157.407 21.1526 157.145 19.7847C156.895 18.3978 156.772 16.9909 156.778 15.5816V0.125061H161.874V14.3838C161.773 16.26 162.027 18.1384 162.62 19.9213C163.138 21.2032 164.735 21.8441 167.411 21.8441H173.411V26.1522H166.97C165.535 26.1487 164.103 26.0115 162.693 25.7424Z" fill="#1B3665"/>
<path d="M173.41 29.5674H0.3302V31.8895H173.41V29.5674Z" fill="#1B3665"/>
<path d="M19.3919 42.3657C19.0953 42.8353 18.6817 43.2197 18.1917 43.4813C17.7017 43.7428 17.1522 43.8726 16.5969 43.8577C15.4822 43.8577 14.4132 43.4149 13.625 42.6267C12.8367 41.8385 12.3939 40.7694 12.3939 39.6547C12.3939 38.54 12.8367 37.471 13.625 36.6828C14.4132 35.8945 15.4822 35.4517 16.5969 35.4517C17.1092 35.4299 17.619 35.5333 18.0823 35.753C18.5455 35.9727 18.9482 36.3021 19.2553 36.7126L18.6249 37.2065C18.403 36.8794 18.1036 36.6122 17.7535 36.4289C17.4033 36.2456 17.0132 36.1517 16.618 36.1557C15.7651 36.2605 14.9801 36.6736 14.4108 37.3171C13.8414 37.9607 13.5272 38.7902 13.5272 39.6495C13.5272 40.5087 13.8414 41.3383 14.4108 41.9818C14.9801 42.6254 15.7651 43.0385 16.618 43.1432C17.0559 43.155 17.4893 43.0516 17.8747 42.8432C18.2602 42.6348 18.5841 42.3288 18.814 41.9559L19.3919 42.3657Z" fill="#1B3665"/>
<path d="M25.8023 43.8576C24.9604 43.9209 24.1191 43.7292 23.3877 43.3075C22.6563 42.8859 22.0689 42.2537 21.7019 41.4934C21.335 40.7332 21.2054 39.88 21.3302 39.045C21.455 38.2101 21.8284 37.4321 22.4016 36.8124C22.9749 36.1926 23.7215 35.7599 24.5442 35.5705C25.3669 35.3811 26.2276 35.4439 27.0141 35.7506C27.8006 36.0573 28.4765 36.5938 28.9538 37.2901C29.4311 37.9864 29.6877 38.8103 29.6901 39.6546C29.7258 40.1893 29.6521 40.7257 29.4735 41.2309C29.2949 41.7362 29.015 42.1997 28.6511 42.5931C28.2872 42.9865 27.8469 43.3016 27.357 43.519C26.8672 43.7364 26.3382 43.8516 25.8023 43.8576ZM25.8023 36.1555C25.0969 36.0834 24.3863 36.2265 23.7639 36.5662C23.1415 36.9058 22.6366 37.426 22.3156 38.0583C21.9947 38.6905 21.8728 39.4051 21.966 40.108C22.0591 40.8109 22.363 41.4691 22.8376 41.9959C23.3122 42.5227 23.9352 42.8933 24.6246 43.0591C25.314 43.2249 26.0374 43.1779 26.6996 42.9245C27.3618 42.671 27.9316 42.2229 28.3342 41.6392C28.7367 41.0555 28.953 40.3636 28.9545 39.6546C28.9936 39.2143 28.9415 38.7708 28.8014 38.3516C28.6614 37.9325 28.4365 37.5467 28.1407 37.2183C27.8449 36.89 27.4845 36.6262 27.0822 36.4433C26.6799 36.2604 26.2442 36.1625 25.8023 36.1555Z" fill="#1B3665"/>
<path d="M38.4101 42.4708V35.6514H39.1667V43.6896H38.221L33.8919 36.7652V43.6896H33.1564V35.6514H34.1021L38.4101 42.4708Z" fill="#1B3665"/>
<path d="M45.3449 43.6889H44.5883V36.3337H42.0875V35.6086H47.8667V36.3337H45.3449V43.6889Z" fill="#1B3665"/>
<path d="M50.0629 43.6889H49.2328L52.4586 35.6821H53.1941L56.3464 43.6889H55.5058L54.6862 41.5874H50.8825L50.0629 43.6889ZM51.1136 40.8413H54.4025L52.7633 36.6383L51.1136 40.8413Z" fill="#1B3665"/>
<path d="M60.045 43.6896H59.2885V35.6514H60.045V43.6896Z" fill="#1B3665"/>
<path d="M69.113 42.4708V35.6514H69.9326V43.6896H68.9869L64.6473 36.8072V43.6896H63.8907V35.6514H64.8364L69.113 42.4708Z" fill="#1B3665"/>
<path d="M74.4193 42.9331H78.4121V43.6896H73.6627V35.6514H78.3386V36.3344H74.4193V39.0978H78.0339V39.8124H74.4193V42.9331Z" fill="#1B3665"/>
<path d="M82.4583 43.6896H81.7018V35.6514H83.8979C85.3689 35.6514 86.4512 36.2293 86.4512 37.7529C86.4769 38.2836 86.2912 38.8028 85.9346 39.1968C85.5781 39.5907 85.08 39.8272 84.5493 39.8544L86.7454 43.6896H85.8207L83.7192 39.9489H82.4583V43.6896ZM82.4583 39.2449H83.7718C84.9801 39.2449 85.6736 38.7721 85.6736 37.8159C85.6736 36.8597 84.9276 36.3344 83.8033 36.3344H82.4583V39.2449Z" fill="#1B3665"/>
<path d="M94.9827 42.9331H98.4607V43.6896H94.2577V35.6514H95.0142L94.9827 42.9331Z" fill="#1B3665"/>
<path d="M102.149 43.6896H101.393V35.6514H102.149V43.6896Z" fill="#1B3665"/>
<path d="M111.217 42.4708V35.6514H111.963V43.6896H111.017L106.709 36.7652V43.6896H105.952V35.6514H106.898L111.217 42.4708Z" fill="#1B3665"/>
<path d="M116.524 42.9331H120.516V43.6896H115.767V35.6514H120.369V36.3344H116.502V39.0978H120.117V39.8124H116.502L116.524 42.9331Z" fill="#1B3665"/>
<path d="M127.41 36.9333C127.245 36.679 127.017 36.4718 126.748 36.3319C126.479 36.1919 126.178 36.124 125.875 36.1347C125.671 36.1233 125.467 36.1537 125.275 36.224C125.082 36.2944 124.907 36.4033 124.758 36.5439C124.61 36.6846 124.491 36.8542 124.411 37.0422C124.33 37.2302 124.289 37.4327 124.289 37.6373C124.289 38.688 125.077 38.9192 125.907 39.2134C126.958 39.5917 128.124 39.949 128.124 41.5566C128.132 41.8733 128.074 42.1882 127.953 42.4809C127.832 42.7736 127.65 43.0375 127.42 43.2555C127.19 43.4735 126.917 43.6408 126.618 43.7463C126.32 43.8519 126.002 43.8934 125.686 43.8683C125.223 43.8736 124.766 43.7642 124.355 43.5497C123.944 43.3351 123.593 43.0222 123.333 42.6389L123.984 42.1135C124.147 42.4257 124.391 42.6882 124.691 42.8732C124.99 43.0581 125.334 43.1587 125.686 43.1643C125.9 43.1757 126.114 43.1434 126.315 43.0693C126.516 42.9952 126.7 42.8809 126.856 42.7334C127.011 42.5859 127.135 42.4083 127.219 42.2114C127.303 42.0144 127.347 41.8024 127.347 41.5881C127.347 40.4638 126.474 40.1906 125.529 39.8649C124.583 39.5392 123.532 39.0768 123.532 37.6268C123.533 37.3218 123.596 37.0202 123.719 36.7409C123.841 36.4616 124.02 36.2105 124.244 36.0034C124.468 35.7963 124.732 35.6376 125.02 35.5373C125.308 35.4369 125.613 35.3971 125.917 35.4202C126.32 35.4041 126.721 35.4843 127.087 35.6543C127.452 35.8242 127.772 36.079 128.019 36.3974L127.41 36.9333Z" fill="#1B3665"/>
<path d="M136.719 43.6896H135.962V35.6514H136.719V43.6896Z" fill="#1B3665"/>
<path d="M145.776 42.4708V35.6514H146.533V43.6896H145.587L141.247 36.8072V43.6896H140.491V35.6514H141.437L145.776 42.4708Z" fill="#1B3665"/>
<path d="M156.62 42.3657C156.323 42.8353 155.91 43.2197 155.42 43.4813C154.93 43.7428 154.38 43.8726 153.825 43.8577C152.71 43.8577 151.641 43.4149 150.853 42.6267C150.065 41.8385 149.622 40.7694 149.622 39.6547C149.622 38.54 150.065 37.471 150.853 36.6828C151.641 35.8945 152.71 35.4517 153.825 35.4517C154.337 35.4299 154.847 35.5333 155.31 35.753C155.774 35.9727 156.176 36.3021 156.483 36.7126L155.853 37.2065C155.631 36.8794 155.332 36.6122 154.981 36.4289C154.631 36.2456 154.241 36.1517 153.846 36.1557C152.993 36.2605 152.208 36.6736 151.639 37.3171C151.069 37.9607 150.755 38.7902 150.755 39.6495C150.755 40.5087 151.069 41.3383 151.639 41.9818C152.208 42.6254 152.993 43.0385 153.846 43.1432C154.284 43.155 154.717 43.0516 155.103 42.8432C155.488 42.6348 155.812 42.3288 156.042 41.9559L156.62 42.3657Z" fill="#1B3665"/>
<path d="M160.098 43.6893C159.976 43.6978 159.855 43.6693 159.749 43.6077C159.644 43.5461 159.559 43.4541 159.506 43.3437C159.454 43.2334 159.435 43.1097 159.454 42.9889C159.473 42.868 159.527 42.7556 159.61 42.6661C159.694 42.5766 159.802 42.5142 159.921 42.4871C160.04 42.46 160.165 42.4693 160.279 42.514C160.393 42.5586 160.49 42.6364 160.559 42.7374C160.628 42.8383 160.665 42.9576 160.666 43.0799C160.669 43.1572 160.656 43.2343 160.629 43.3067C160.602 43.3792 160.561 43.4456 160.508 43.5022C160.456 43.5588 160.392 43.6045 160.322 43.6366C160.252 43.6687 160.176 43.6866 160.098 43.6893Z" fill="#1B3665"/>
</svg>
