<svg width="192" height="44" viewBox="0 0 192 44" fill="none" xmlns="http://www.w3.org/2000/svg">
<g clip-path="url(#clip0_68_2694)">
<path fill-rule="evenodd" clip-rule="evenodd" d="M58.6157 30.7036V12.0776H63.5721L69.8522 25.9966L76.0391 12.0776H80.7872V30.7036H76.7002V19.868L71.9847 30.7036H67.628L62.8519 19.927V30.7036H58.6157Z" fill="#0A0B09"/>
<path fill-rule="evenodd" clip-rule="evenodd" d="M97.2359 23.492L93.8162 15.5968L90.4749 23.492H97.2359ZM87.418 30.7036H82.6116L90.8734 12.0776H96.7908L105.112 30.7036H100.367L98.7298 26.9933H89.0051L87.418 30.7036Z" fill="#0A0B09"/>
<path fill-rule="evenodd" clip-rule="evenodd" d="M107.028 30.7036V12.0776H124.812V15.8019H111.323V19.5013H122.888V23.1362H111.323V26.9778H124.844V30.7036H107.028Z" fill="#0A0B09"/>
<path fill-rule="evenodd" clip-rule="evenodd" d="M132.659 20.6301H142.003V15.8019H132.659V20.6301ZM128.303 30.7036V12.0776H143.184C145.172 12.0776 146.327 13.2282 146.327 15.2014V21.459C146.327 22.8985 145.052 24.1997 142.581 24.1997C142.441 24.2067 142.298 24.1997 142.151 24.1997L146.483 30.7036H141.702L137.595 24.3349H132.659V30.7036H128.303Z" fill="#0A0B09"/>
<path fill-rule="evenodd" clip-rule="evenodd" d="M154.164 30.7139H152.69C150.765 30.7139 149.838 29.6014 149.838 27.9817V25.5486H154.164V26.9896H163.357V23.1768C163.357 23.1768 154.495 23.1768 152.812 23.1768C151.129 23.1768 149.916 22.0449 149.916 20.4741V14.9445C149.916 13.2711 151.236 12.0887 152.842 12.0887C154.447 12.0887 164.896 12.0887 164.896 12.0887C166.525 12.0887 167.652 13.3045 167.652 15.0626C167.652 16.8183 167.652 17.2851 167.652 17.2851H163.357V15.813H154.164V19.4813H164.678C166.23 19.4813 167.652 20.5083 167.652 22.4854V27.8015C167.652 29.6123 166.648 30.7139 164.769 30.7139C162.891 30.7139 154.164 30.7139 154.164 30.7139Z" fill="#0A0B09"/>
<path fill-rule="evenodd" clip-rule="evenodd" d="M171.802 30.7137V12.0862H176.217V19.5362L184.628 12.0862H190.607L180.573 20.7388L190.968 30.7137H184.778L176.217 22.2413V30.7137H171.802Z" fill="#0A0B09"/>
<path fill-rule="evenodd" clip-rule="evenodd" d="M40.798 37.7089C40.798 40.3712 38.6407 42.5293 35.9784 42.5293H5.5536C2.89053 42.5293 0.732422 40.3712 0.732422 37.7089V5.06922C0.732422 2.40693 2.89053 0.248047 5.5536 0.248047H35.9784C38.6407 0.248047 40.798 2.40693 40.798 5.06922V37.7089Z" fill="#42B0D5"/>
<path fill-rule="evenodd" clip-rule="evenodd" d="M27.1523 20.292L35.0583 10.377L35.0335 10.3451L23.6075 15.8476L20.7851 3.48315H20.7455L17.9232 15.8476L6.49719 10.3451L6.47233 10.377L14.3792 20.292L2.95239 25.7945L2.96249 25.8333H15.6439L12.8216 38.1986L12.8573 38.2149L20.7657 28.2999L28.6726 38.2149L28.7083 38.197L25.8875 25.8333H38.569L38.5783 25.7945L27.1523 20.292Z" fill="#FFFFFE"/>
</g>
<defs>
<clipPath id="clip0_68_2694">
<rect width="190.524" height="43.75" fill="white" transform="translate(0.5 0.125)"/>
</clipPath>
</defs>
</svg>
