<svg width="50" height="50" viewBox="0 0 50 50" fill="none" xmlns="http://www.w3.org/2000/svg">
<path d="M25.0006 49.9996C21.6272 49.9996 18.353 49.3381 15.269 48.0335C12.2912 46.7738 9.61756 44.9714 7.32309 42.6765C5.02901 40.384 3.22655 37.7108 1.96529 34.7314C0.661084 31.647 0 28.3728 0 24.9998C0 21.6268 0.661083 18.3526 1.96451 15.2686C3.22264 12.2928 5.02511 9.61912 7.32153 7.32192C9.61678 5.02745 12.2904 3.22499 15.2682 1.96529C18.3491 0.661084 21.6233 0 24.9998 0C28.3763 0 31.6497 0.661086 34.731 1.9649C37.7084 3.22343 40.382 5.0255 42.6769 7.32153C44.9718 9.61717 46.7738 12.2904 48.0331 15.2674C49.3362 18.3479 49.9977 21.6225 50 25.0002C50 28.3732 49.3389 31.6474 48.0347 34.7318C46.7766 37.7076 44.9741 40.3809 42.6785 42.6769C40.3836 44.9718 37.71 46.7742 34.7318 48.0339C31.6481 49.3385 28.374 50 25.0006 50V49.9996ZM24.9998 0.780963C21.7287 0.780963 18.5569 1.42135 15.5728 2.68456C12.6879 3.90482 10.0979 5.65105 7.87406 7.87406C5.6491 10.0998 3.90286 12.6899 2.68378 15.5724C1.42096 18.5596 0.780572 21.7315 0.780572 24.9994C0.780572 28.2674 1.42096 31.4392 2.68417 34.4264C3.90599 37.3125 5.65222 39.9021 7.87484 42.1236C10.0979 44.3474 12.6879 46.0936 15.5728 47.3139C18.56 48.5775 21.7315 49.2183 24.9998 49.2183C28.2681 49.2183 31.44 48.5775 34.4268 47.3139C37.3117 46.0932 39.9021 44.347 42.1255 42.1236C44.3501 39.899 46.096 37.3093 47.315 34.4264C48.5783 31.4388 49.2186 28.267 49.2186 24.9994C49.2167 21.7272 48.5755 18.5545 47.3135 15.5708C46.0936 12.6871 44.3474 10.0971 42.124 7.87289C39.9006 5.64871 37.3105 3.90286 34.4264 2.68378C31.4416 1.42096 28.2697 0.780572 24.9994 0.780572L24.9998 0.780963ZM24.9982 46.8843C22.0427 46.8843 19.1766 46.306 16.4803 45.1651C13.875 44.0627 11.5344 42.4848 9.52346 40.4746C7.51326 38.4652 5.93493 36.1242 4.83299 33.5178C3.69239 30.8215 3.1137 27.9557 3.1137 24.9998C3.1137 22.0439 3.692 19.1781 4.83299 16.4811C5.93532 13.8758 7.51326 11.5352 9.52346 9.52424C11.5344 7.51326 13.875 5.93532 16.4803 4.83377C17.9364 4.21759 19.4616 3.76073 21.0134 3.47529L21.6741 3.35384L10.6734 34.8544H23.4894L30.7809 13.9742H28.3095L21.8326 32.522H13.9597L24.2239 3.1262L24.4934 3.11917C24.6468 3.11526 24.8077 3.11331 24.9998 3.11331C27.9561 3.11331 30.8223 3.69161 33.5189 4.83182C36.1231 5.93298 38.4636 7.51091 40.4758 9.52228C42.4864 11.5329 44.0647 13.8734 45.167 16.4791C46.308 19.1762 46.8863 22.0423 46.8863 24.9978C46.8847 27.4954 46.4697 29.939 45.6528 32.2616L45.561 32.5224H29.6047L36.0817 13.9746H33.6111L26.3196 34.8548H44.5575L44.2447 35.4315C43.2431 37.2781 41.9748 38.9748 40.4746 40.475C38.4636 42.486 36.1227 44.0643 33.517 45.1654C30.8207 46.306 27.9546 46.8847 24.9978 46.8847L24.9982 46.8843ZM20.4897 4.37691C19.2234 4.65259 17.9801 5.04736 16.7845 5.55304C14.2721 6.61515 12.0151 8.13724 10.0756 10.0764C8.13686 12.0155 6.61515 14.2729 5.55226 16.7852C4.45227 19.3855 3.89466 22.1493 3.89466 24.9994C3.89466 27.8495 4.45227 30.6134 5.55226 33.2132C6.61515 35.7267 8.13686 37.9841 10.0756 39.9221C12.0151 41.8608 14.2721 43.3825 16.7845 44.4454C19.3839 45.5454 22.1473 46.103 24.9982 46.103C27.8491 46.103 30.6138 45.5454 33.2132 44.4454C35.7259 43.3833 37.9833 41.8616 39.9228 39.9221C41.2122 38.6327 42.3239 37.1934 43.2337 35.6353H25.22L33.0566 13.1932H37.1817L30.7047 31.7411H45.0057C45.734 29.5802 46.1038 27.3126 46.1049 24.9971C46.1049 22.1469 45.5473 19.3831 44.4473 16.7829C43.3841 14.2701 41.862 12.0132 39.9232 10.074C37.9825 8.13412 35.7256 6.61241 33.2144 5.55069C30.6145 4.45149 27.8503 3.89388 24.9994 3.89388C24.9221 3.89388 24.8506 3.89388 24.7823 3.89466L21.3535 13.7122L15.0593 31.7407H21.2777L27.7547 13.1928H31.8801L24.0431 35.635H9.57305L20.489 4.37652L20.4897 4.37691Z" fill="white"/>
<path fill-rule="evenodd" clip-rule="evenodd" d="M24.9998 0.780963C21.7287 0.780963 18.5569 1.42135 15.5728 2.68456C12.6879 3.90482 10.0979 5.65105 7.87406 7.87406C5.6491 10.0998 3.90286 12.6899 2.68378 15.5724C1.42096 18.5596 0.780572 21.7315 0.780572 24.9994C0.780572 28.2674 1.42096 31.4392 2.68417 34.4264C3.90599 37.3125 5.65222 39.9021 7.87484 42.1236C10.0979 44.3474 12.6879 46.0936 15.5728 47.3139C18.56 48.5775 21.7315 49.2183 24.9998 49.2183C28.2681 49.2183 31.44 48.5775 34.4268 47.3139C37.3117 46.0932 39.9021 44.347 42.1255 42.1236C44.3501 39.899 46.096 37.3093 47.315 34.4264C48.5783 31.4388 49.2186 28.267 49.2186 24.9994C49.2167 21.7272 48.5755 18.5545 47.3135 15.5708C46.0936 12.6871 44.3474 10.0971 42.124 7.87289C39.9006 5.64871 37.3105 3.90286 34.4264 2.68378C31.4416 1.42096 28.2697 0.780572 24.9994 0.780572L24.9998 0.780963ZM16.4803 45.1651C19.1766 46.306 22.0427 46.8843 24.9982 46.8843L24.9978 46.8847C27.9546 46.8847 30.8207 46.306 33.517 45.1654C36.1227 44.0643 38.4636 42.486 40.4746 40.475C41.9748 38.9748 43.2431 37.2781 44.2447 35.4315L44.5575 34.8548H26.3196L33.6111 13.9746H36.0817L29.6047 32.5224H45.561L45.6528 32.2616C46.4697 29.939 46.8847 27.4954 46.8863 24.9978C46.8863 22.0423 46.308 19.1762 45.167 16.4791C44.0647 13.8734 42.4864 11.5329 40.4758 9.52228C38.4636 7.51091 36.1231 5.93298 33.5189 4.83182C30.8223 3.69161 27.9561 3.11331 24.9998 3.11331C24.8077 3.11331 24.6468 3.11526 24.4934 3.11917L24.2239 3.1262L13.9597 32.522H21.8326L28.3095 13.9742H30.7809L23.4894 34.8544H10.6734L21.6741 3.35384L21.0134 3.47529C19.4616 3.76073 17.9364 4.21759 16.4803 4.83377C13.875 5.93532 11.5344 7.51326 9.52346 9.52424C7.51326 11.5352 5.93532 13.8758 4.83299 16.4811C3.692 19.1781 3.1137 22.0439 3.1137 24.9998C3.1137 27.9557 3.69239 30.8215 4.83299 33.5178C5.93493 36.1242 7.51326 38.4652 9.52346 40.4746C11.5344 42.4848 13.875 44.0627 16.4803 45.1651Z" fill="white"/>
</svg>
